# MagicaVoxel @ Ephtracy

# group
o Tomato

# material
mtllib Tomato.vox-0-Tomato.mtl
usemtl palette

# normals
vn 1 0 0
vn -1 0 0
vn 0 -1 0
vn 0 1 0
vn 0 0 1
vn 0 0 -1

# texcoords
vt 0.224609 0.5
vt 0.251953 0.5
vt 0.392578 0.5
vt 0.623047 0.5
vt 0.650391 0.5

# verts
v 1.3 1.7 0
v 1.3 2.2 0
v 1.3 1.7 -0.1
v 1.3 2.2 -0.1
v 1.2 1.6 0
v 1.2 1.7 0
v 1.2 2.2 0
v 1.2 2.3 0
v 1.2 1.6 -0.1
v 1.2 1.7 -0.1
v 1.2 2.2 -0.1
v 1.2 2.3 -0.1
v 1.1 1.5 0
v 1.1 1.6 0
v 1.1 2.3 0
v 1.1 2.4 0
v 1.1 1.5 -0.1
v 1.1 1.6 -0.1
v 1.1 2.3 -0.1
v 1.1 2.4 -0.1
v 1 1.4 0
v 1 1.5 0
v 1 2.4 0
v 1 2.5 0
v 1 1.4 -0.1
v 1 1.5 -0.1
v 1 2.4 -0.1
v 1 2.5 -0.1
v 0.9 1.3 0
v 0.9 1.4 0
v 0.9 2.5 0
v 0.9 2.6 0
v 0.9 1.3 -0.1
v 0.9 1.4 -0.1
v 0.9 2.5 -0.1
v 0.9 2.6 -0.1
v 0.8 1.2 0
v 0.8 1.3 0
v 0.8 1.2 -0.1
v 0.8 1.3 -0.1
v 0.4 1.1 0
v 0.4 1.2 0
v 0.4 1.1 -0.1
v 0.4 1.2 -0.1
v 0.3 2.5 0
v 0.3 2.6 0
v 0.3 2.7 0
v 0.3 2.5 -0.1
v 0.3 2.6 -0.1
v 0.3 2.7 -0.1
v 0.2 2.4 0
v 0.2 2.5 0
v 0.2 2.4 -0.1
v 0.2 2.5 -0.1
v 1.19209e-07 2.6 0
v 1.19209e-07 2.8 0
v 1.19209e-07 2.6 -0.1
v 1.19209e-07 2.8 -0.1
v -0.4 2.5 0
v -0.4 2.6 0
v -0.4 2.5 -0.1
v -0.4 2.6 -0.1
v 0.4 2.5 0
v 0.4 2.6 0
v 0.4 2.5 -0.1
v 0.4 2.6 -0.1
v 0.3 2.4 0
v 0.3 2.5 0
v 0.3 2.4 -0.1
v 0.3 2.5 -0.1
v 0.1 2.6 0
v 0.1 2.7 0
v 0.1 2.6 -0.1
v 0.1 2.7 -0.1
v -0.2 2.5 0
v -0.2 2.6 0
v -0.2 2.8 0
v -0.2 2.5 -0.1
v -0.2 2.6 -0.1
v -0.2 2.8 -0.1
v -0.4 1.1 0
v -0.4 1.2 0
v -0.4 1.1 -0.1
v -0.4 1.2 -0.1
v -0.7 1.2 0
v -0.7 1.3 0
v -0.7 1.2 -0.1
v -0.7 1.3 -0.1
v -0.8 1.3 0
v -0.8 1.4 0
v -0.8 1.3 -0.1
v -0.8 1.4 -0.1
v -0.9 1.4 0
v -0.9 1.5 0
v -0.9 2.5 0
v -0.9 2.6 0
v -0.9 1.4 -0.1
v -0.9 1.5 -0.1
v -0.9 2.5 -0.1
v -0.9 2.6 -0.1
v -1 1.5 0
v -1 1.6 0
v -1 2.4 0
v -1 2.5 0
v -1 1.5 -0.1
v -1 1.6 -0.1
v -1 2.4 -0.1
v -1 2.5 -0.1
v -1.1 1.6 0
v -1.1 1.7 0
v -1.1 2.3 0
v -1.1 2.4 0
v -1.1 1.6 -0.1
v -1.1 1.7 -0.1
v -1.1 2.3 -0.1
v -1.1 2.4 -0.1
v -1.2 1.7 0
v -1.2 2.3 0
v -1.2 1.7 -0.1
v -1.2 2.3 -0.1
v 0.4 1.1 0
v 0.4 1.1 -0.1
v -0.4 1.1 0
v -0.4 1.1 -0.1
v 0.8 1.2 0
v 0.8 1.2 -0.1
v 0.4 1.2 0
v 0.4 1.2 -0.1
v -0.4 1.2 0
v -0.4 1.2 -0.1
v -0.7 1.2 0
v -0.7 1.2 -0.1
v 0.9 1.3 0
v 0.9 1.3 -0.1
v 0.8 1.3 0
v 0.8 1.3 -0.1
v -0.7 1.3 0
v -0.7 1.3 -0.1
v -0.8 1.3 0
v -0.8 1.3 -0.1
v 1 1.4 0
v 1 1.4 -0.1
v 0.9 1.4 0
v 0.9 1.4 -0.1
v -0.8 1.4 0
v -0.8 1.4 -0.1
v -0.9 1.4 0
v -0.9 1.4 -0.1
v 1.1 1.5 0
v 1.1 1.5 -0.1
v 1 1.5 0
v 1 1.5 -0.1
v -0.9 1.5 0
v -0.9 1.5 -0.1
v -1 1.5 0
v -1 1.5 -0.1
v 1.2 1.6 0
v 1.2 1.6 -0.1
v 1.1 1.6 0
v 1.1 1.6 -0.1
v -1 1.6 0
v -1 1.6 -0.1
v -1.1 1.6 0
v -1.1 1.6 -0.1
v 1.3 1.7 0
v 1.3 1.7 -0.1
v 1.2 1.7 0
v 1.2 1.7 -0.1
v -1.1 1.7 0
v -1.1 1.7 -0.1
v -1.2 1.7 0
v -1.2 1.7 -0.1
v 0.3 2.5 0
v 0.3 2.5 -0.1
v 0.2 2.5 0
v 0.2 2.5 -0.1
v 1.3 2.2 0
v 1.3 2.2 -0.1
v 1.2 2.2 0
v 1.2 2.2 -0.1
v 1.2 2.3 0
v 1.2 2.3 -0.1
v 1.1 2.3 0
v 1.1 2.3 -0.1
v -1.1 2.3 0
v -1.1 2.3 -0.1
v -1.2 2.3 0
v -1.2 2.3 -0.1
v 1.1 2.4 0
v 1.1 2.4 -0.1
v 1 2.4 0
v 1 2.4 -0.1
v 0.3 2.4 0
v 0.3 2.4 -0.1
v 0.2 2.4 0
v 0.2 2.4 -0.1
v -1 2.4 0
v -1 2.4 -0.1
v -1.1 2.4 0
v -1.1 2.4 -0.1
v 1 2.5 0
v 1 2.5 -0.1
v 0.9 2.5 0
v 0.9 2.5 -0.1
v 0.4 2.5 0
v 0.4 2.5 -0.1
v 0.3 2.5 0
v 0.3 2.5 -0.1
v -0.2 2.5 0
v -0.2 2.5 -0.1
v -0.4 2.5 0
v -0.4 2.5 -0.1
v -0.9 2.5 0
v -0.9 2.5 -0.1
v -1 2.5 0
v -1 2.5 -0.1
v 0.9 2.6 0
v 0.9 2.6 -0.1
v 0.4 2.6 0
v 0.4 2.6 -0.1
v 0.1 2.6 0
v 0.1 2.6 -0.1
v 1.19209e-07 2.6 0
v 1.19209e-07 2.6 -0.1
v -0.4 2.6 0
v -0.4 2.6 -0.1
v -0.9 2.6 0
v -0.9 2.6 -0.1
v 0.3 2.7 0
v 0.3 2.7 -0.1
v 0.1 2.7 0
v 0.1 2.7 -0.1
v 1.19209e-07 2.8 0
v 1.19209e-07 2.8 -0.1
v -0.2 2.8 0
v -0.2 2.8 -0.1
v 0.4 1.1 0
v -0.4 1.1 0
v 0.8 1.2 0
v 0.4 1.2 0
v -0.4 1.2 0
v -0.7 1.2 0
v 0.9 1.3 0
v 0.8 1.3 0
v 0.4 1.3 0
v -0.4 1.3 0
v -0.7 1.3 0
v -0.8 1.3 0
v 1 1.4 0
v 0.9 1.4 0
v -0.7 1.4 0
v -0.8 1.4 0
v -0.9 1.4 0
v 1.1 1.5 0
v 1 1.5 0
v -0.8 1.5 0
v -0.9 1.5 0
v -1 1.5 0
v 1.2 1.6 0
v 1.1 1.6 0
v -0.9 1.6 0
v -1 1.6 0
v -1.1 1.6 0
v 1.3 1.7 0
v 1.2 1.7 0
v -1 1.7 0
v -1.1 1.7 0
v -1.2 1.7 0
v 1.3 2.2 0
v 1.2 2.2 0
v 1.2 2.3 0
v 1.1 2.3 0
v 0.9 2.3 0
v 0.8 2.3 0
v 0.6 2.3 0
v 0.4 2.3 0
v -1.1 2.3 0
v -1.2 2.3 0
v 1.1 2.4 0
v 1 2.4 0
v 0.9 2.4 0
v 0.8 2.4 0
v 0.6 2.4 0
v 0.3 2.4 0
v 0.2 2.4 0
v 0.1 2.4 0
v 1.19209e-07 2.4 0
v -0.2 2.4 0
v -1 2.4 0
v -1.1 2.4 0
v 1 2.5 0
v 0.9 2.5 0
v 0.8 2.5 0
v 0.4 2.5 0
v 0.3 2.5 0
v 0.2 2.5 0
v 0.1 2.5 0
v 1.19209e-07 2.5 0
v -0.0999999 2.5 0
v -0.2 2.5 0
v -0.4 2.5 0
v -0.9 2.5 0
v -1 2.5 0
v 0.9 2.6 0
v 0.4 2.6 0
v 0.3 2.6 0
v 0.2 2.6 0
v 0.1 2.6 0
v 1.19209e-07 2.6 0
v -0.0999999 2.6 0
v -0.2 2.6 0
v -0.4 2.6 0
v -0.9 2.6 0
v 0.3 2.7 0
v 0.1 2.7 0
v 1.19209e-07 2.8 0
v -0.2 2.8 0
v 0.4 1.1 -0.1
v -0.4 1.1 -0.1
v 0.8 1.2 -0.1
v 0.4 1.2 -0.1
v -0.4 1.2 -0.1
v -0.7 1.2 -0.1
v 0.9 1.3 -0.1
v 0.8 1.3 -0.1
v 0.4 1.3 -0.1
v -0.4 1.3 -0.1
v -0.7 1.3 -0.1
v -0.8 1.3 -0.1
v 1 1.4 -0.1
v 0.9 1.4 -0.1
v -0.7 1.4 -0.1
v -0.8 1.4 -0.1
v -0.9 1.4 -0.1
v 1.1 1.5 -0.1
v 1 1.5 -0.1
v -0.8 1.5 -0.1
v -0.9 1.5 -0.1
v -1 1.5 -0.1
v 1.2 1.6 -0.1
v 1.1 1.6 -0.1
v -0.9 1.6 -0.1
v -1 1.6 -0.1
v -1.1 1.6 -0.1
v 1.3 1.7 -0.1
v 1.2 1.7 -0.1
v -1 1.7 -0.1
v -1.1 1.7 -0.1
v -1.2 1.7 -0.1
v 1.3 2.2 -0.1
v 1.2 2.2 -0.1
v 1.2 2.3 -0.1
v 1.1 2.3 -0.1
v 0.9 2.3 -0.1
v 0.8 2.3 -0.1
v 0.6 2.3 -0.1
v 0.4 2.3 -0.1
v -1.1 2.3 -0.1
v -1.2 2.3 -0.1
v 1.1 2.4 -0.1
v 1 2.4 -0.1
v 0.9 2.4 -0.1
v 0.8 2.4 -0.1
v 0.6 2.4 -0.1
v 0.3 2.4 -0.1
v 0.2 2.4 -0.1
v 0.1 2.4 -0.1
v 1.19209e-07 2.4 -0.1
v -0.2 2.4 -0.1
v -1 2.4 -0.1
v -1.1 2.4 -0.1
v 1 2.5 -0.1
v 0.9 2.5 -0.1
v 0.8 2.5 -0.1
v 0.4 2.5 -0.1
v 0.3 2.5 -0.1
v 0.2 2.5 -0.1
v 0.1 2.5 -0.1
v 1.19209e-07 2.5 -0.1
v -0.0999999 2.5 -0.1
v -0.2 2.5 -0.1
v -0.4 2.5 -0.1
v -0.9 2.5 -0.1
v -1 2.5 -0.1
v 0.9 2.6 -0.1
v 0.4 2.6 -0.1
v 0.3 2.6 -0.1
v 0.2 2.6 -0.1
v 0.1 2.6 -0.1
v 1.19209e-07 2.6 -0.1
v -0.0999999 2.6 -0.1
v -0.2 2.6 -0.1
v -0.4 2.6 -0.1
v -0.9 2.6 -0.1
v 0.3 2.7 -0.1
v 0.1 2.7 -0.1
v 1.19209e-07 2.8 -0.1
v -0.2 2.8 -0.1

# faces
f 3/2/1 2/2/1 1/2/1
f 4/2/1 2/2/1 3/2/1
f 9/2/1 6/2/1 5/2/1
f 10/2/1 6/2/1 9/2/1
f 11/2/1 8/2/1 7/2/1
f 12/2/1 8/2/1 11/2/1
f 17/2/1 14/2/1 13/2/1
f 18/2/1 14/2/1 17/2/1
f 19/2/1 16/2/1 15/2/1
f 20/2/1 16/2/1 19/2/1
f 25/2/1 22/2/1 21/2/1
f 26/2/1 22/2/1 25/2/1
f 27/2/1 24/2/1 23/2/1
f 28/2/1 24/2/1 27/2/1
f 33/2/1 30/2/1 29/2/1
f 34/2/1 30/2/1 33/2/1
f 35/2/1 32/2/1 31/2/1
f 36/2/1 32/2/1 35/2/1
f 39/3/1 38/3/1 37/3/1
f 40/3/1 38/3/1 39/3/1
f 43/3/1 42/3/1 41/3/1
f 44/3/1 42/3/1 43/3/1
f 48/5/1 46/5/1 45/5/1
f 49/4/1 47/4/1 46/4/1
f 49/5/1 46/5/1 48/5/1
f 50/4/1 47/4/1 49/4/1
f 53/5/1 52/5/1 51/5/1
f 54/5/1 52/5/1 53/5/1
f 57/4/1 56/4/1 55/4/1
f 58/4/1 56/4/1 57/4/1
f 61/2/1 60/2/1 59/2/1
f 62/2/1 60/2/1 61/2/1
f 63/2/2 64/2/2 65/2/2
f 65/2/2 64/2/2 66/2/2
f 67/2/2 68/2/2 69/2/2
f 69/2/2 68/2/2 70/2/2
f 71/4/2 72/4/2 73/4/2
f 73/4/2 72/4/2 74/4/2
f 75/5/2 76/5/2 78/5/2
f 76/4/2 77/4/2 79/4/2
f 78/5/2 76/5/2 79/5/2
f 79/4/2 77/4/2 80/4/2
f 81/3/2 82/3/2 83/3/2
f 83/3/2 82/3/2 84/3/2
f 85/3/2 86/3/2 87/3/2
f 87/3/2 86/3/2 88/3/2
f 89/3/2 90/3/2 91/3/2
f 91/3/2 90/3/2 92/3/2
f 93/3/2 94/3/2 97/3/2
f 97/3/2 94/3/2 98/3/2
f 95/2/2 96/2/2 99/2/2
f 99/2/2 96/2/2 100/2/2
f 101/3/2 102/3/2 105/3/2
f 105/3/2 102/3/2 106/3/2
f 103/2/2 104/2/2 107/2/2
f 107/2/2 104/2/2 108/2/2
f 109/3/2 110/3/2 113/3/2
f 113/3/2 110/3/2 114/3/2
f 111/2/2 112/2/2 115/2/2
f 115/2/2 112/2/2 116/2/2
f 117/3/2 118/3/2 119/3/2
f 119/3/2 118/3/2 120/3/2
f 123/3/3 122/3/3 121/3/3
f 124/3/3 122/3/3 123/3/3
f 127/3/3 126/3/3 125/3/3
f 128/3/3 126/3/3 127/3/3
f 131/3/3 130/3/3 129/3/3
f 132/3/3 130/3/3 131/3/3
f 135/2/3 134/2/3 133/2/3
f 136/2/3 134/2/3 135/2/3
f 139/3/3 138/3/3 137/3/3
f 140/3/3 138/3/3 139/3/3
f 143/2/3 142/2/3 141/2/3
f 144/2/3 142/2/3 143/2/3
f 147/3/3 146/3/3 145/3/3
f 148/3/3 146/3/3 147/3/3
f 151/2/3 150/2/3 149/2/3
f 152/2/3 150/2/3 151/2/3
f 155/3/3 154/3/3 153/3/3
f 156/3/3 154/3/3 155/3/3
f 159/2/3 158/2/3 157/2/3
f 160/2/3 158/2/3 159/2/3
f 163/3/3 162/3/3 161/3/3
f 164/3/3 162/3/3 163/3/3
f 167/2/3 166/2/3 165/2/3
f 168/2/3 166/2/3 167/2/3
f 171/3/3 170/3/3 169/3/3
f 172/3/3 170/3/3 171/3/3
f 175/5/3 174/5/3 173/5/3
f 176/5/3 174/5/3 175/5/3
f 177/2/4 178/2/4 179/2/4
f 179/2/4 178/2/4 180/2/4
f 181/2/4 182/2/4 183/2/4
f 183/2/4 182/2/4 184/2/4
f 185/3/4 186/3/4 187/3/4
f 187/3/4 186/3/4 188/3/4
f 189/2/4 190/2/4 191/2/4
f 191/2/4 190/2/4 192/2/4
f 193/2/4 194/2/4 195/2/4
f 195/2/4 194/2/4 196/2/4
f 197/2/4 198/2/4 199/2/4
f 199/2/4 198/2/4 200/2/4
f 201/2/4 202/2/4 203/2/4
f 203/2/4 202/2/4 204/2/4
f 205/2/4 206/2/4 207/2/4
f 207/2/4 206/2/4 208/2/4
f 209/2/4 210/2/4 211/2/4
f 211/2/4 210/2/4 212/2/4
f 213/2/4 214/2/4 215/2/4
f 215/2/4 214/2/4 216/2/4
f 217/2/4 218/2/4 219/2/4
f 219/2/4 218/2/4 220/2/4
f 221/4/4 222/4/4 223/4/4
f 223/4/4 222/4/4 224/4/4
f 225/2/4 226/2/4 227/2/4
f 227/2/4 226/2/4 228/2/4
f 229/4/4 230/4/4 231/4/4
f 231/4/4 230/4/4 232/4/4
f 233/4/4 234/4/4 235/4/4
f 235/4/4 234/4/4 236/4/4
f 240/3/5 238/3/5 237/3/5
f 241/3/5 238/3/5 240/3/5
f 244/3/5 240/3/5 239/3/5
f 245/2/5 241/2/5 240/2/5
f 245/3/5 240/3/5 244/3/5
f 246/3/5 242/3/5 241/3/5
f 246/2/5 241/2/5 245/2/5
f 247/3/5 242/3/5 246/3/5
f 250/2/5 245/2/5 244/2/5
f 250/2/5 244/2/5 243/2/5
f 250/2/5 247/2/5 246/2/5
f 250/2/5 246/2/5 245/2/5
f 251/3/5 248/3/5 247/3/5
f 251/2/5 247/2/5 250/2/5
f 252/3/5 248/3/5 251/3/5
f 255/2/5 250/2/5 249/2/5
f 255/2/5 251/2/5 250/2/5
f 255/2/5 252/2/5 251/2/5
f 256/3/5 253/3/5 252/3/5
f 256/2/5 252/2/5 255/2/5
f 257/3/5 253/3/5 256/3/5
f 260/2/5 255/2/5 254/2/5
f 260/2/5 256/2/5 255/2/5
f 260/2/5 257/2/5 256/2/5
f 261/3/5 258/3/5 257/3/5
f 261/2/5 257/2/5 260/2/5
f 262/3/5 258/3/5 261/3/5
f 265/2/5 260/2/5 259/2/5
f 265/2/5 261/2/5 260/2/5
f 265/2/5 262/2/5 261/2/5
f 266/3/5 263/3/5 262/3/5
f 266/2/5 262/2/5 265/2/5
f 267/3/5 263/3/5 266/3/5
f 269/2/5 265/2/5 264/2/5
f 269/2/5 266/2/5 265/2/5
f 269/2/5 267/2/5 266/2/5
f 270/2/5 267/2/5 269/2/5
f 271/2/5 267/2/5 270/2/5
f 272/2/5 267/2/5 271/2/5
f 273/2/5 267/2/5 272/2/5
f 274/2/5 267/2/5 273/2/5
f 275/2/5 267/2/5 274/2/5
f 276/2/5 267/2/5 275/2/5
f 277/3/5 268/3/5 267/3/5
f 277/2/5 267/2/5 276/2/5
f 278/3/5 268/3/5 277/3/5
f 279/2/5 273/2/5 272/2/5
f 280/2/5 273/2/5 279/2/5
f 281/1/5 274/1/5 273/1/5
f 281/2/5 273/2/5 280/2/5
f 282/2/5 275/2/5 274/2/5
f 282/1/5 274/1/5 281/1/5
f 283/1/5 276/1/5 275/1/5
f 283/2/5 275/2/5 282/2/5
f 284/2/5 277/2/5 276/2/5
f 285/2/5 277/2/5 284/2/5
f 286/2/5 277/2/5 285/2/5
f 287/2/5 277/2/5 286/2/5
f 288/2/5 277/2/5 287/2/5
f 289/2/5 277/2/5 288/2/5
f 290/2/5 277/2/5 289/2/5
f 291/2/5 282/2/5 281/2/5
f 291/2/5 281/2/5 280/2/5
f 292/2/5 282/2/5 291/2/5
f 293/1/5 283/1/5 282/1/5
f 293/2/5 282/2/5 292/2/5
f 294/1/5 276/1/5 283/1/5
f 294/1/5 283/1/5 293/1/5
f 294/2/5 284/2/5 276/2/5
f 295/2/5 284/2/5 294/2/5
f 296/5/5 286/5/5 285/5/5
f 297/4/5 287/4/5 286/4/5
f 297/5/5 286/5/5 296/5/5
f 298/5/5 288/5/5 287/5/5
f 298/4/5 287/4/5 297/4/5
f 299/5/5 288/5/5 298/5/5
f 300/2/5 289/2/5 288/2/5
f 300/5/5 288/5/5 299/5/5
f 301/2/5 289/2/5 300/2/5
f 302/2/5 289/2/5 301/2/5
f 303/2/5 289/2/5 302/2/5
f 304/2/5 293/2/5 292/2/5
f 304/2/5 294/2/5 293/2/5
f 305/2/5 294/2/5 304/2/5
f 306/5/5 296/5/5 295/5/5
f 307/4/5 299/4/5 298/4/5
f 307/5/5 296/5/5 306/5/5
f 307/4/5 297/4/5 296/4/5
f 307/4/5 298/4/5 297/4/5
f 308/4/5 299/4/5 307/4/5
f 309/4/5 299/4/5 308/4/5
f 310/5/5 300/5/5 299/5/5
f 310/4/5 299/4/5 309/4/5
f 311/5/5 300/5/5 310/5/5
f 312/2/5 302/2/5 301/2/5
f 313/2/5 302/2/5 312/2/5
f 314/4/5 307/4/5 306/4/5
f 314/4/5 308/4/5 307/4/5
f 315/4/5 308/4/5 314/4/5
f 316/4/5 311/4/5 310/4/5
f 316/4/5 310/4/5 309/4/5
f 317/4/5 311/4/5 316/4/5
f 318/3/6 319/3/6 321/3/6
f 321/3/6 319/3/6 322/3/6
f 320/3/6 321/3/6 325/3/6
f 321/2/6 322/2/6 326/2/6
f 325/3/6 321/3/6 326/3/6
f 322/3/6 323/3/6 327/3/6
f 326/2/6 322/2/6 327/2/6
f 327/3/6 323/3/6 328/3/6
f 325/2/6 326/2/6 331/2/6
f 324/2/6 325/2/6 331/2/6
f 327/2/6 328/2/6 331/2/6
f 326/2/6 327/2/6 331/2/6
f 328/3/6 329/3/6 332/3/6
f 331/2/6 328/2/6 332/2/6
f 332/3/6 329/3/6 333/3/6
f 330/2/6 331/2/6 336/2/6
f 331/2/6 332/2/6 336/2/6
f 332/2/6 333/2/6 336/2/6
f 333/3/6 334/3/6 337/3/6
f 336/2/6 333/2/6 337/2/6
f 337/3/6 334/3/6 338/3/6
f 335/2/6 336/2/6 341/2/6
f 336/2/6 337/2/6 341/2/6
f 337/2/6 338/2/6 341/2/6
f 338/3/6 339/3/6 342/3/6
f 341/2/6 338/2/6 342/2/6
f 342/3/6 339/3/6 343/3/6
f 340/2/6 341/2/6 346/2/6
f 341/2/6 342/2/6 346/2/6
f 342/2/6 343/2/6 346/2/6
f 343/3/6 344/3/6 347/3/6
f 346/2/6 343/2/6 347/2/6
f 347/3/6 344/3/6 348/3/6
f 345/2/6 346/2/6 350/2/6
f 346/2/6 347/2/6 350/2/6
f 347/2/6 348/2/6 350/2/6
f 350/2/6 348/2/6 351/2/6
f 351/2/6 348/2/6 352/2/6
f 352/2/6 348/2/6 353/2/6
f 353/2/6 348/2/6 354/2/6
f 354/2/6 348/2/6 355/2/6
f 355/2/6 348/2/6 356/2/6
f 356/2/6 348/2/6 357/2/6
f 348/3/6 349/3/6 358/3/6
f 357/2/6 348/2/6 358/2/6
f 358/3/6 349/3/6 359/3/6
f 353/2/6 354/2/6 360/2/6
f 360/2/6 354/2/6 361/2/6
f 354/1/6 355/1/6 362/1/6
f 361/2/6 354/2/6 362/2/6
f 355/2/6 356/2/6 363/2/6
f 362/1/6 355/1/6 363/1/6
f 356/1/6 357/1/6 364/1/6
f 363/2/6 356/2/6 364/2/6
f 357/2/6 358/2/6 365/2/6
f 365/2/6 358/2/6 366/2/6
f 366/2/6 358/2/6 367/2/6
f 367/2/6 358/2/6 368/2/6
f 368/2/6 358/2/6 369/2/6
f 369/2/6 358/2/6 370/2/6
f 370/2/6 358/2/6 371/2/6
f 362/2/6 363/2/6 372/2/6
f 361/2/6 362/2/6 372/2/6
f 372/2/6 363/2/6 373/2/6
f 363/1/6 364/1/6 374/1/6
f 373/2/6 363/2/6 374/2/6
f 364/1/6 357/1/6 375/1/6
f 374/1/6 364/1/6 375/1/6
f 357/2/6 365/2/6 375/2/6
f 375/2/6 365/2/6 376/2/6
f 366/5/6 367/5/6 377/5/6
f 367/4/6 368/4/6 378/4/6
f 377/5/6 367/5/6 378/5/6
f 368/5/6 369/5/6 379/5/6
f 378/4/6 368/4/6 379/4/6
f 379/5/6 369/5/6 380/5/6
f 369/2/6 370/2/6 381/2/6
f 380/5/6 369/5/6 381/5/6
f 381/2/6 370/2/6 382/2/6
f 382/2/6 370/2/6 383/2/6
f 383/2/6 370/2/6 384/2/6
f 373/2/6 374/2/6 385/2/6
f 374/2/6 375/2/6 385/2/6
f 385/2/6 375/2/6 386/2/6
f 376/5/6 377/5/6 387/5/6
f 379/4/6 380/4/6 388/4/6
f 387/5/6 377/5/6 388/5/6
f 377/4/6 378/4/6 388/4/6
f 378/4/6 379/4/6 388/4/6
f 388/4/6 380/4/6 389/4/6
f 389/4/6 380/4/6 390/4/6
f 380/5/6 381/5/6 391/5/6
f 390/4/6 380/4/6 391/4/6
f 391/5/6 381/5/6 392/5/6
f 382/2/6 383/2/6 393/2/6
f 393/2/6 383/2/6 394/2/6
f 387/4/6 388/4/6 395/4/6
f 388/4/6 389/4/6 395/4/6
f 395/4/6 389/4/6 396/4/6
f 391/4/6 392/4/6 397/4/6
f 390/4/6 391/4/6 397/4/6
f 397/4/6 392/4/6 398/4/6
